<svg width="1193" height="1063" viewBox="0 0 1193 1063" fill="none" xmlns="http://www.w3.org/2000/svg">
<path fill-rule="evenodd" clip-rule="evenodd" d="M1075.98 4.64094C1098.71 15.0263 1108.64 41.6864 1098.14 64.1879L932.521 419.323H1147.66C1172.7 419.323 1193 439.414 1193 464.196C1193 488.979 1172.7 509.069 1147.66 509.069H890.667L644.725 1036.43C637.357 1052.23 621.425 1062.39 603.843 1062.5C586.261 1062.61 570.2 1052.65 562.631 1036.94L308.244 509.069H44.3418C19.3002 509.069 -1 488.979 -1 464.196C-1 439.414 19.3002 419.323 44.3418 419.323H264.995L94.0997 64.7001C83.32 42.3313 92.9043 15.5495 115.507 4.88126C138.11 -5.78694 165.171 3.69828 175.951 26.0671L365.464 419.323H832.645L1015.81 26.5793C1026.3 4.07775 1053.24 -5.74439 1075.98 4.64094ZM790.791 509.069H408.713L602.884 911.99L790.791 509.069Z" fill="#7D069B"/>
</svg>
